<svg width="720" height="520" viewBox="0 0 720 520" fill="none" xmlns="http://www.w3.org/2000/svg">
  <defs>
    <linearGradient id="bg2" x1="0" y1="0" x2="1" y2="1">
      <stop offset="0" stop-color="#0E1A2F"/>
      <stop offset="1" stop-color="#111E34"/>
    </linearGradient>
    <linearGradient id="line1" x1="0" y1="0" x2="1" y2="0">
      <stop offset="0" stop-color="#22C55E"/>
      <stop offset="1" stop-color="#14B8A6"/>
    </linearGradient>
  </defs>
  <rect width="720" height="520" rx="26" fill="url(#bg2)"/>
  <rect x="24" y="24" width="672" height="472" rx="20" fill="#0B1626" stroke="#1E2A44"/>

  <path d="M70 430 H650" stroke="#1E2A44"/>
  <path d="M70 360 H650" stroke="#1E2A44"/>
  <path d="M70 290 H650" stroke="#1E2A44"/>
  <path d="M70 220 H650" stroke="#1E2A44"/>
  <path d="M70 150 H650" stroke="#1E2A44"/>

  <path d="M90 400 L170 330 L250 350 L340 280 L430 320 L540 250 L630 300" stroke="url(#line1)" stroke-width="4" fill="none"/>
  <circle cx="90" cy="400" r="5" fill="#22C55E"/>
  <circle cx="170" cy="330" r="5" fill="#22C55E"/>
  <circle cx="250" cy="350" r="5" fill="#22C55E"/>
  <circle cx="340" cy="280" r="5" fill="#22C55E"/>
  <circle cx="430" cy="320" r="5" fill="#22C55E"/>
  <circle cx="540" cy="250" r="5" fill="#22C55E"/>
  <circle cx="630" cy="300" r="5" fill="#22C55E"/>

  <rect x="90" y="80" width="140" height="12" rx="6" fill="#1E2A44"/>
  <rect x="90" y="100" width="200" height="12" rx="6" fill="#1E2A44"/>
</svg>
