<svg width="900" height="560" viewBox="0 0 900 560" fill="none" xmlns="http://www.w3.org/2000/svg">
  <defs>
    <linearGradient id="bg1" x1="0" y1="0" x2="1" y2="1">
      <stop offset="0" stop-color="#0F1A2B"/>
      <stop offset="1" stop-color="#121F36"/>
    </linearGradient>
    <linearGradient id="g1" x1="0" y1="0" x2="0" y2="1">
      <stop offset="0" stop-color="#22C55E" stop-opacity="0.6"/>
      <stop offset="1" stop-color="#22C55E" stop-opacity="0.05"/>
    </linearGradient>
    <linearGradient id="g2" x1="0" y1="0" x2="0" y2="1">
      <stop offset="0" stop-color="#38BDF8" stop-opacity="0.6"/>
      <stop offset="1" stop-color="#38BDF8" stop-opacity="0.05"/>
    </linearGradient>
  </defs>
  <rect width="900" height="560" rx="28" fill="url(#bg1)"/>
  <rect x="22" y="22" width="856" height="516" rx="22" fill="#0E1626" stroke="#1E2A44"/>

  <rect x="50" y="60" width="260" height="120" rx="16" fill="#0F1A2B" stroke="#1E2A44"/>
  <rect x="330" y="60" width="520" height="120" rx="16" fill="#0F1A2B" stroke="#1E2A44"/>
  <rect x="50" y="200" width="800" height="300" rx="18" fill="#0F1A2B" stroke="#1E2A44"/>

  <path d="M90 420 L190 360 L280 380 L380 320 L520 360 L640 300 L800 350" stroke="#22C55E" stroke-width="4" fill="none"/>
  <path d="M90 420 L190 360 L280 380 L380 320 L520 360 L640 300 L800 350 L800 500 L90 500 Z" fill="url(#g1)"/>

  <path d="M360 150 L430 110 L520 130 L620 95 L780 140" stroke="#38BDF8" stroke-width="4" fill="none"/>
  <circle cx="360" cy="150" r="5" fill="#38BDF8"/>
  <circle cx="430" cy="110" r="5" fill="#38BDF8"/>
  <circle cx="520" cy="130" r="5" fill="#38BDF8"/>
  <circle cx="620" cy="95" r="5" fill="#38BDF8"/>
  <circle cx="780" cy="140" r="5" fill="#38BDF8"/>

  <rect x="80" y="92" width="120" height="10" rx="5" fill="#1E2A44"/>
  <rect x="80" y="112" width="160" height="10" rx="5" fill="#1E2A44"/>
  <rect x="80" y="132" width="90" height="10" rx="5" fill="#1E2A44"/>
</svg>
